<svg width="42" height="34" viewBox="0 0 42 34" fill="none" xmlns="http://www.w3.org/2000/svg">
<path d="M9.212 6.17476C8.98351 6.05496 8.72696 5.99486 8.46742 6.00034C8.20789 6.00582 7.95426 6.0767 7.73134 6.20603C7.50842 6.33537 7.32384 6.51874 7.19565 6.73821C7.06746 6.95768 7.00004 7.20574 7 7.45813V25.9309C7 26.3177 7.15804 26.6886 7.43934 26.9621C7.72064 27.2356 8.10218 27.3893 8.5 27.3893C8.89782 27.3893 9.27936 27.2356 9.56066 26.9621C9.84196 26.6886 10 26.3177 10 25.9309V9.90043L20.788 15.5473C21.232 15.7806 21.768 15.7806 22.212 15.5473L33 9.90043V25.9309C33 26.3177 33.158 26.6886 33.4393 26.9621C33.7206 27.2356 34.1022 27.3893 34.5 27.3893C34.8978 27.3893 35.2794 27.2356 35.5607 26.9621C35.842 26.6886 36 26.3177 36 25.9309V7.45813C36 7.20574 35.9325 6.95768 35.8044 6.73821C35.6762 6.51874 35.4916 6.33537 35.2687 6.20603C35.0457 6.0767 34.7921 6.00582 34.5326 6.00034C34.273 5.99486 34.0165 6.05496 33.788 6.17476L21.5 12.6072L9.212 6.17476Z" fill="#222222"/>
<path fill-rule="evenodd" clip-rule="evenodd" d="M31.62 0.685238C24.5541 0.0710664 17.4459 0.0710664 10.38 0.685238L7.344 0.947746C5.76258 1.08504 4.27492 1.73659 3.12128 2.79718C1.96765 3.85776 1.21539 5.26546 0.986 6.79291C-0.0101444 13.417 -0.0101444 20.1467 0.986 26.7707C1.21589 28.2981 1.96862 29.7056 3.12262 30.7658C4.27662 31.8261 5.76451 32.4772 7.346 32.6139L10.378 32.8784C17.446 33.4929 24.554 33.4929 31.622 32.8784L34.656 32.6139C36.2371 32.4767 37.7246 31.8255 38.8782 30.7653C40.0318 29.7051 40.7842 28.2978 41.014 26.7707C42.0101 20.1467 42.0101 13.417 41.014 6.79291C40.7845 5.26516 40.032 3.85723 38.8779 2.79661C37.7239 1.73599 36.2358 1.08463 34.654 0.947746L31.622 0.685238H31.62ZM10.648 3.59032C17.5369 2.99148 24.4671 2.99148 31.356 3.59032L34.39 3.85477C35.2995 3.93332 36.1553 4.30766 36.819 4.91735C37.4828 5.52703 37.9157 6.33645 38.048 7.21487C39.0022 13.5591 39.0022 20.0045 38.048 26.3488C37.9157 27.2272 37.4828 28.0366 36.819 28.6463C36.1553 29.256 35.2995 29.6303 34.39 29.7089L31.356 29.9733C24.468 30.5722 17.536 30.5722 10.648 29.9733L7.614 29.7089C6.70446 29.6303 5.84871 29.256 5.18497 28.6463C4.52123 28.0366 4.08826 27.2272 3.956 26.3488C3.00193 20.0045 3.00193 13.5591 3.956 7.21487C4.08826 6.33645 4.52123 5.52703 5.18497 4.91735C5.84871 4.30766 6.70446 3.93332 7.614 3.85477L10.648 3.59032Z" fill="#222222"/>
</svg>
