<svg width="41" height="39" viewBox="0 0 41 39" fill="none" xmlns="http://www.w3.org/2000/svg">
<path d="M11.89 0.364746H29.11C35.67 0.364746 41 5.27342 41 11.3149V27.1737C41 30.0778 39.7473 32.863 37.5175 34.9166C35.2877 36.9701 32.2634 38.1238 29.11 38.1238H11.89C5.33 38.1238 0 33.2151 0 27.1737V11.3149C0 8.41071 1.25269 5.62551 3.4825 3.57196C5.71231 1.51842 8.73658 0.364746 11.89 0.364746ZM11.48 4.14065C9.5227 4.14065 7.64557 4.85672 6.26155 6.13133C4.87753 7.40595 4.1 9.13469 4.1 10.9373V27.5512C4.1 31.3083 7.4005 34.3479 11.48 34.3479H29.52C31.4773 34.3479 33.3544 33.6318 34.7384 32.3572C36.1225 31.0826 36.9 29.3538 36.9 27.5512V10.9373C36.9 7.18025 33.5995 4.14065 29.52 4.14065H11.48ZM31.2625 6.97257C31.9421 6.97257 32.5939 7.22121 33.0745 7.66378C33.555 8.10636 33.825 8.70662 33.825 9.33251C33.825 9.95841 33.555 10.5587 33.0745 11.0012C32.5939 11.4438 31.9421 11.6925 31.2625 11.6925C30.5829 11.6925 29.9311 11.4438 29.4505 11.0012C28.97 10.5587 28.7 9.95841 28.7 9.33251C28.7 8.70662 28.97 8.10636 29.4505 7.66378C29.9311 7.22121 30.5829 6.97257 31.2625 6.97257ZM20.5 9.8045C23.2185 9.8045 25.8256 10.799 27.7478 12.5693C29.6701 14.3396 30.75 16.7407 30.75 19.2443C30.75 21.7478 29.6701 24.1489 27.7478 25.9192C25.8256 27.6895 23.2185 28.684 20.5 28.684C17.7815 28.684 15.1744 27.6895 13.2522 25.9192C11.3299 24.1489 10.25 21.7478 10.25 19.2443C10.25 16.7407 11.3299 14.3396 13.2522 12.5693C15.1744 10.799 17.7815 9.8045 20.5 9.8045ZM20.5 13.5804C18.8689 13.5804 17.3046 14.1771 16.1513 15.2393C14.9979 16.3015 14.35 17.7421 14.35 19.2443C14.35 20.7464 14.9979 22.187 16.1513 23.2492C17.3046 24.3114 18.8689 24.9081 20.5 24.9081C22.1311 24.9081 23.6954 24.3114 24.8487 23.2492C26.0021 22.187 26.65 20.7464 26.65 19.2443C26.65 17.7421 26.0021 16.3015 24.8487 15.2393C23.6954 14.1771 22.1311 13.5804 20.5 13.5804Z" fill="#222222"/>
</svg>
