<svg width="39" height="39" viewBox="0 0 39 39" fill="none" xmlns="http://www.w3.org/2000/svg">
<path d="M34.375 0C35.5022 0 36.5832 0.452413 37.3802 1.25771C38.1772 2.06302 38.625 3.15524 38.625 4.29411V34.3528C38.625 35.4917 38.1772 36.5839 37.3802 37.3892C36.5832 38.1945 35.5022 38.6469 34.375 38.6469H4.625C3.49783 38.6469 2.41683 38.1945 1.6198 37.3892C0.822766 36.5839 0.375 35.4917 0.375 34.3528V4.29411C0.375 3.15524 0.822766 2.06302 1.6198 1.25771C2.41683 0.452413 3.49783 0 4.625 0H34.375ZM33.3125 33.2793V21.8999C33.3125 20.0436 32.5826 18.2633 31.2835 16.9506C29.9843 15.638 28.2223 14.9005 26.385 14.9005C24.5787 14.9005 22.475 16.017 21.455 17.6917V15.3085H15.5263V33.2793H21.455V22.6943C21.455 21.0411 22.7725 19.6885 24.4088 19.6885C25.1978 19.6885 25.9545 20.0052 26.5124 20.5689C27.0703 21.1326 27.3838 21.8971 27.3838 22.6943V33.2793H33.3125ZM8.62 11.9376C9.56682 11.9376 10.4749 11.5576 11.1444 10.8811C11.8139 10.2047 12.19 9.28721 12.19 8.33056C12.19 6.33381 10.5963 4.70205 8.62 4.70205C7.66754 4.70205 6.75409 5.08433 6.0806 5.76481C5.40711 6.44529 5.02875 7.36822 5.02875 8.33056C5.02875 10.3273 6.64375 11.9376 8.62 11.9376ZM11.5738 33.2793V15.3085H5.6875V33.2793H11.5738Z" fill="#222222"/>
</svg>
