<svg width="43" height="34" viewBox="0 0 43 34" fill="none" xmlns="http://www.w3.org/2000/svg">
<path d="M37.6649 6.98318C37.5034 6.3675 37.0444 5.90264 36.5195 5.76008C35.5888 5.50596 31.0646 4.92747 21.5021 4.92747C11.9396 4.92747 7.41763 5.50596 6.4805 5.76008C5.962 5.90057 5.503 6.36543 5.33937 6.98318C5.10775 7.85917 4.50212 11.5284 4.50212 17.3237C4.50212 23.1168 5.10775 26.7861 5.33937 27.6662C5.50087 28.2798 5.95988 28.7447 6.48263 28.8852C7.41763 29.1414 11.9375 29.7199 21.5 29.7199C31.0625 29.7199 35.5866 29.1414 36.5216 28.8872C37.0401 28.7468 37.4991 28.2819 37.6628 27.6642C37.8965 26.7882 38.5 23.1086 38.5 17.3237C38.5 11.5388 37.8965 7.86124 37.6649 6.98318ZM41.781 5.95636C42.7521 9.63803 42.7521 17.3237 42.7521 17.3237C42.7521 17.3237 42.7521 25.0093 41.781 28.691C41.2413 30.726 39.6624 32.3272 37.6628 32.8685C34.0311 33.8519 21.5 33.8519 21.5 33.8519C21.5 33.8519 8.97737 33.8519 5.33937 32.8685C3.33125 32.3189 1.7545 30.7198 1.22113 28.691C0.25 25.0093 0.25 17.3237 0.25 17.3237C0.25 17.3237 0.25 9.63803 1.22113 5.95636C1.76088 3.92132 3.33975 2.32014 5.33937 1.77884C8.9795 0.79541 21.5021 0.79541 21.5021 0.79541C21.5021 0.79541 34.0311 0.79541 37.6628 1.77884C39.6688 2.32841 41.2476 3.92751 41.781 5.95636ZM17.2521 24.5548V10.0926L30.0021 17.3237L17.2521 24.5548Z" fill="#222222"/>
</svg>
