<svg width="22" height="18" viewBox="0 0 22 18" fill="none" xmlns="http://www.w3.org/2000/svg">
<path d="M7.704 17.088C6.424 17.3867 5.25067 17.536 4.184 17.536C3.11733 17.536 2.30667 16.8747 1.752 15.552C1.24 14.2293 0.984 12.5013 0.984 10.368C0.984 8.192 1.77333 6.16533 3.352 4.288C4.93067 2.41066 6.97867 1.216 9.496 0.703999L10.072 2.56C8.408 3.072 7.10667 3.904 6.168 5.056C5.272 6.16533 4.824 7.424 4.824 8.832V9.088C5.08 9.04533 5.42133 9.024 5.848 9.024C7.42667 9.024 8.216 10.3253 8.216 12.928C8.216 14.08 8.04533 15.4667 7.704 17.088ZM18.968 17.088C17.688 17.3867 16.5147 17.536 15.448 17.536C14.3813 17.536 13.5707 16.8747 13.016 15.552C12.504 14.2293 12.248 12.5013 12.248 10.368C12.248 8.192 13.0373 6.16533 14.616 4.288C16.1947 2.41066 18.2427 1.216 20.76 0.703999L21.336 2.56C19.672 3.072 18.3707 3.904 17.432 5.056C16.536 6.16533 16.088 7.424 16.088 8.832V9.088C16.344 9.04533 16.6853 9.024 17.112 9.024C18.6907 9.024 19.48 10.3253 19.48 12.928C19.48 14.08 19.3093 15.4667 18.968 17.088Z" fill="white"/>
</svg>
